# xmcd
#
# Track frame offsets:
#	150
#	19486
#	44646
#	69963
#	113585
#	143678
#	175006
#	198221
#	225857
#	260933
#	296047
#	313122
#
# Disc length: 4387 seconds
#
# Revision: 0
# Processed by: cddbd v1.5PL3 Copyright (c) Steve Scherf et al.
# Submitted via: dBpowerAMP V4.0
#
DISCID=aa11210c
DTITLE=¸t¸g-ÂÂ¬ù - Disc 26
DYEAR=1900
DGENRE=
TTITLE0=26-01-¦C¤ý¬ö¤U²Ä1³¹
TTITLE1=26-02-¦C¤ý¬ö¤U²Ä2³¹
TTITLE2=26-03-¦C¤ý¬ö¤U²Ä3³¹
TTITLE3=26-04-¦C¤ý¬ö¤U²Ä4³¹
TTITLE4=26-05-¦C¤ý¬ö¤U²Ä5³¹
TTITLE5=26-06-¦C¤ý¬ö¤U²Ä6³¹
TTITLE6=26-07-¦C¤ý¬ö¤U²Ä7³¹
TTITLE7=26-08-¦C¤ý¬ö¤U²Ä8³¹
TTITLE8=26-09-¦C¤ý¬ö¤U²Ä9³¹
TTITLE9=26-10-¦C¤ý¬ö¤U²Ä10³¹
TTITLE10=26-11-¦C¤ý¬ö¤U²Ä11³¹
TTITLE11=26-12-¦C¤ý¬ö¤U²Ä12³¹
EXTD=
EXTT0=
EXTT1=
EXTT2=
EXTT3=
EXTT4=
EXTT5=
EXTT6=
EXTT7=
EXTT8=
EXTT9=
EXTT10=
EXTT11=
PLAYORDER=
